<?xml version="1.0" encoding="UTF-8" standalone="no"?>
<!-- Created with Inkscape (http://www.inkscape.org/) -->

<svg
   width="48"
   height="48"
   viewBox="0 0 12.7 12.7"
   version="1.1"
   id="svg1"
   sodipodi:docname="favicon.svg"
   inkscape:version="1.4 (e7c3feb100, 2024-10-09)"
   xmlns:inkscape="http://www.inkscape.org/namespaces/inkscape"
   xmlns:sodipodi="http://sodipodi.sourceforge.net/DTD/sodipodi-0.dtd"
   xmlns="http://www.w3.org/2000/svg"
   xmlns:svg="http://www.w3.org/2000/svg">
  <sodipodi:namedview
     id="namedview1"
     pagecolor="#ffffff"
     bordercolor="#000000"
     borderopacity="0.25"
     inkscape:showpageshadow="2"
     inkscape:pageopacity="0.0"
     inkscape:pagecheckerboard="0"
     inkscape:deskcolor="#d1d1d1"
     inkscape:zoom="8.9791667"
     inkscape:cx="9.5777262"
     inkscape:cy="23.944315"
     inkscape:window-width="1907"
     inkscape:window-height="1054"
     inkscape:window-x="0"
     inkscape:window-y="0"
     inkscape:window-maximized="1"
     inkscape:current-layer="svg1" />
  <defs
     id="defs1" />
  <rect
     style="fill:#eff1f5;stroke:none;stroke-width:0.25;fill-opacity:1"
     id="rect17"
     width="12.7"
     height="12.7"
     x="0"
     y="0"
     rx="1" />
  <g
     id="g1"
     style="fill:#1e66f5;fill-opacity:1">
    <path
       d="M 9.2935061,10.246162 V 9.7224564 L 10.356321,9.256512 q 0.07702,-0.034657 0.161733,-0.057762 0.08472,-0.023105 0.134777,-0.030806 -0.05006,-0.0077 -0.134777,-0.026955 -0.08472,-0.023105 -0.161733,-0.057762 L 9.2935061,8.6172825 V 8.0897257 l 1.7713589,0.8009622 v 0.5506616 z m -1.9677486,0.0039 V 9.7263072 L 8.3885728,9.2603628 q 0.077016,-0.034657 0.1617328,-0.057762 0.084717,-0.023105 0.1347773,-0.030806 -0.05006,-0.0077 -0.1347773,-0.026955 -0.084717,-0.023105 -0.1617328,-0.057762 L 7.3257575,8.6211333 V 8.0935764 l 1.7713588,0.8009623 v 0.5506615 z"
       id="text10"
       style="font-weight:800;font-size:3.85078px;font-family:'JetBrains Mono';-inkscape-font-specification:'JetBrains Mono Ultra-Bold';stroke-width:0.285819;fill:#1e66f5;fill-opacity:1"
       aria-label="&gt;&gt;" />
    <rect
       style="fill:#1e66f5;stroke:none;stroke-width:0.285819;fill-opacity:1"
       id="rect11"
       width="4.7587571"
       height="4.7587571"
       x="1.0583262"
       y="6.8829093"
       rx="1" />
    <rect
       style="fill:#1e66f5;stroke:none;stroke-width:0.285819;fill-opacity:1"
       id="rect12"
       width="4.7587571"
       height="4.7587571"
       x="1.0583262"
       y="1.0583335"
       rx="1" />
    <rect
       style="fill:#1e66f5;stroke:none;stroke-width:0.285819;fill-opacity:1"
       id="rect13"
       width="4.7587571"
       height="4.7587571"
       x="6.8829165"
       y="1.0583335"
       rx="1" />
  </g>
</svg>
