<?xml version="1.0" encoding="UTF-8" standalone="no"?>
<!-- Created with Inkscape (http://www.inkscape.org/) -->

<svg
   width="140"
   height="40"
   viewBox="0 0 37.041666 10.583333"
   version="1.1"
   id="svg1"
   sodipodi:docname="qrs.svg"
   inkscape:version="1.4 (e7c3feb100, 2024-10-09)"
   xmlns:inkscape="http://www.inkscape.org/namespaces/inkscape"
   xmlns:sodipodi="http://sodipodi.sourceforge.net/DTD/sodipodi-0.dtd"
   xmlns="http://www.w3.org/2000/svg"
   xmlns:svg="http://www.w3.org/2000/svg">
  <sodipodi:namedview
     id="namedview1"
     pagecolor="#ffffff"
     bordercolor="#000000"
     borderopacity="0.25"
     inkscape:showpageshadow="2"
     inkscape:pageopacity="0.0"
     inkscape:pagecheckerboard="0"
     inkscape:deskcolor="#d1d1d1"
     inkscape:zoom="10.775"
     inkscape:cx="61.160093"
     inkscape:cy="28.027842"
     inkscape:window-width="1913"
     inkscape:window-height="1054"
     inkscape:window-x="0"
     inkscape:window-y="0"
     inkscape:window-maximized="1"
     inkscape:current-layer="layer1" />
  <defs
     id="defs1" />
  <rect
     style="fill:#eff1f5;fill-opacity:1;stroke-width:0.353553"
     id="rect1"
     width="37.041668"
     height="10.583333"
     x="-2.808838e-07"
     y="0"
     rx="0.52916664" />
  <g
     id="layer1"
     style="fill:#1e66f5;fill-opacity:1"
     transform="translate(17.817278)">
    <path
       d="m 7.092922,9.1011649 q -0.2593514,0 -0.454707,-0.090941 Q 6.4462276,8.9192821 6.3384452,8.7542403 6.234031,8.5858303 6.234031,8.3601609 h 0.4917572 q 0,0.1380962 0.097678,0.2223012 0.101046,0.080837 0.269456,0.080837 0.1650418,0 0.2559832,-0.077469 0.09431,-0.080837 0.09431,-0.2121966 0,-0.1044142 -0.060628,-0.185251 Q 7.3219596,8.1041777 7.2040726,8.0772321 L 6.9043028,8.0064999 Q 6.6146376,7.9391359 6.4428594,7.7471485 q -0.16841,-0.1953556 -0.16841,-0.4648116 0,-0.3300836 0.2121966,-0.5187028 0.2155648,-0.1886192 0.5860668,-0.1886192 0.370502,0 0.589435,0.1919874 0.218933,0.1886192 0.218933,0.5119664 H 7.3893236 q 0,-0.1279916 -0.084205,-0.1987238 -0.084205,-0.0741 -0.2324058,-0.0741 -0.1448326,0 -0.2256694,0.070732 -0.080837,0.070732 -0.080837,0.1886192 0,0.1919874 0.2324058,0.2458786 l 0.3098744,0.070732 q 0.2896652,0.063996 0.4580752,0.2795606 0.1717782,0.2121966 0.1717782,0.5119664 0,0.218933 -0.1044142,0.3839748 Q 7.73288,8.9226503 7.5408926,9.0135917 7.3522734,9.1011649 7.092922,9.1011649 Z m 1.2731808,-0.033682 v -2.458786 h 1.51569 v 0.437866 H 8.8612282 V 7.5989477 H 9.7639058 V 8.0166045 H 8.8612282 v 0.6130124 h 1.0205646 v 0.437866 z m 1.9535572,0 v -2.458786 h 0.589435 l 0.63659,1.903033 q -0.01011,-0.1246234 -0.02358,-0.286297 -0.01347,-0.1650418 -0.02358,-0.3267154 -0.0067,-0.1650418 -0.0067,-0.2795606 v -1.01046 h 0.444602 v 2.458786 h -0.589435 l -0.629853,-1.903033 q 0.0101,0.1077824 0.02021,0.2559832 0.0101,0.1482008 0.01684,0.2997698 0.0101,0.151569 0.0101,0.269456 v 1.077824 z m 2.031026,0 v -2.458786 h 0.798263 q 0.255983,0 0.444603,0.097678 0.191987,0.097678 0.296401,0.2761924 0.107783,0.1751464 0.107783,0.4142886 v 0.8791002 q 0,0.235774 -0.107783,0.4142886 -0.104414,0.1785146 -0.296401,0.2795606 -0.18862,0.097678 -0.444603,0.097678 z m 0.50523,-0.454707 h 0.293033 q 0.151569,0 0.245879,-0.09431 0.09768,-0.09431 0.09768,-0.2425104 V 7.3968557 q 0,-0.1482008 -0.09768,-0.2391422 -0.09431,-0.09431 -0.245879,-0.09431 h -0.293033 z m 3.411989,0.2896652 V 8.4443659 l 0.929624,-0.4075522 q 0.06736,-0.030314 0.141464,-0.050523 0.0741,-0.020209 0.117887,-0.026946 -0.04379,-0.00674 -0.117887,-0.023577 -0.0741,-0.020209 -0.141464,-0.050523 L 16.267905,7.4776925 V 7.0162491 l 1.549372,0.7005856 v 0.4816526 z m -1.72115,0.00337 V 8.4477341 l 0.929623,-0.4075522 q 0.06736,-0.030314 0.141465,-0.050523 0.0741,-0.020209 0.117887,-0.026946 -0.04379,-0.00674 -0.117887,-0.023577 -0.0741,-0.020209 -0.141465,-0.050523 L 14.546755,7.4810607 V 7.0196173 l 1.549372,0.7005856 v 0.4816526 z"
       id="text13"
       style="font-weight:800;font-size:3.3682px;font-family:'JetBrains Mono';-inkscape-font-specification:'JetBrains Mono Ultra-Bold';stroke-width:0.25"
       aria-label="SEND&gt;&gt;" />
    <rect
       style="fill:#1e66f5;fill-opacity:1;stroke:none;stroke-width:0.25"
       id="rect14"
       width="4.1623869"
       height="4.1623869"
       x="0.70355535"
       y="5.7577906"
       rx="0.52916664" />
    <rect
       style="fill:#1e66f5;fill-opacity:1;stroke:none;stroke-width:0.25"
       id="rect15"
       width="4.1623869"
       height="4.1623869"
       x="0.70355535"
       y="0.66315567"
       rx="0.52916664" />
    <rect
       style="fill:#1e66f5;fill-opacity:1;stroke:none;stroke-width:0.25"
       id="rect16"
       width="4.1623869"
       height="4.1623869"
       x="5.7982063"
       y="0.66315567"
       rx="0.52916664" />
  </g>
  <path
     d="M 4.3511909,9.6524586 3.4791239,8.2046581 q -0.033867,0 -0.0762,0 -0.042333,0.00847 -0.084667,0.00847 -0.8551336,0 -1.3631338,-0.4910668 Q 1.4555897,7.2225243 1.4555897,6.3927907 V 3.6834563 q 0,-0.8297337 0.4995336,-1.3208006 0.5080002,-0.4995335 1.3631338,-0.4995335 0.8551337,0 1.3546672,0.4995335 0.5080002,0.4910669 0.5080002,1.3208006 v 2.7093344 q 0,0.5672669 -0.2455334,0.9906004 Q 4.6898577,7.8067246 4.2411242,8.0183913 L 5.2317246,9.6524586 Z M 3.3182571,7.5357911 q 0.4995336,0 0.795867,-0.3132668 Q 4.4189242,6.9092575 4.4189242,6.3927907 V 3.6834563 q 0,-0.5249336 -0.3048001,-0.8297337 -0.2963334,-0.3132668 -0.795867,-0.3132668 -0.4995335,0 -0.8043336,0.3132668 Q 2.21759,3.1585227 2.21759,3.6834563 v 2.7093344 q 0,0.5164668 0.2963335,0.8297336 0.3048001,0.3132668 0.8043336,0.3132668 z M 6.6456616,8.128458 V 1.9477889 h 1.9050008 q 0.5503335,0 0.9652003,0.2286001 0.4148669,0.2201334 0.6434673,0.6180669 0.2286,0.3979335 0.2286,0.9313337 0,0.6265336 -0.321734,1.0752671 Q 9.7444628,5.2497902 9.2110626,5.4275903 L 10.472596,8.128458 H 9.6343961 L 8.4236623,5.5037903 H 7.3991952 V 8.128458 Z M 7.3991952,4.81799 h 1.1514672 q 0.4741335,0 0.7620003,-0.2963334 0.2878667,-0.3048001 0.2878667,-0.795867 0,-0.4995335 -0.2878667,-0.795867 Q 9.0247959,2.6335892 8.5506624,2.6335892 H 7.3991952 Z m 6.1129388,3.3951347 q -0.897467,0 -1.430867,-0.4741335 -0.5334,-0.4741335 -0.5334,-1.3038672 h 0.762 q 0,0.5164669 0.3302,0.8128003 0.3302,0.2878668 0.872067,0.2878668 0.524934,0 0.8382,-0.3048001 0.313267,-0.3048001 0.313267,-0.795867 0,-0.3725335 -0.2032,-0.6434669 Q 14.265668,5.512257 13.893134,5.4106569 l -0.9398,-0.2624667 q -0.5842,-0.1693334 -0.922867,-0.6011336 -0.3302,-0.4402668 -0.3302,-1.0329337 0,-0.4910669 0.220133,-0.8636004 0.220134,-0.3725335 0.618067,-0.5757336 0.397934,-0.2116667 0.9144,-0.2116667 0.524934,0 0.922867,0.2116667 0.406401,0.2032001 0.635001,0.5757336 0.2286,0.3640668 0.2286,0.846667 h -0.762 q 0,-0.4233335 -0.287867,-0.6858003 -0.287867,-0.2709334 -0.736601,-0.2709334 -0.448733,0 -0.728133,0.2709334 -0.2794,0.2624668 -0.2794,0.6858003 0,0.3386668 0.1778,0.5842002 0.186267,0.2370668 0.516467,0.3302002 l 0.9652,0.2709334 q 0.618067,0.1693334 0.956734,0.6434669 0.347133,0.4656669 0.347133,1.1091338 0,0.8128003 -0.516467,1.2954005 -0.516467,0.4826002 -1.380067,0.4826002 z"
     id="text1"
     style="font-size:8.46667px;font-family:'JetBrains Mono';-inkscape-font-specification:'JetBrains Mono';fill:#4c4f69;stroke-width:0.25"
     aria-label="QRS" />
</svg>
